<mxfile host="Electron" agent="Mozilla/5.0 (Windows NT 10.0; Win64; x64) AppleWebKit/537.36 (KHTML, like Gecko) draw.io/25.0.2 Chrome/128.0.6613.186 Electron/32.2.5 Safari/537.36" version="25.0.2">
  <diagram name="Página-1" id="9-8qHw2B4Uci2Bg4CFUr">
    <mxGraphModel dx="2736" dy="1144" grid="1" gridSize="10" guides="1" tooltips="1" connect="1" arrows="1" fold="1" page="1" pageScale="1" pageWidth="827" pageHeight="1169" math="0" shadow="0">
      <root>
        <mxCell id="0" />
        <mxCell id="1" parent="0" />
        <mxCell id="iVkipJ4tJbpNIvdXxOQ8-1" value="inicio" style="rounded=1;whiteSpace=wrap;html=1;" parent="1" vertex="1">
          <mxGeometry x="354" y="70" width="120" height="60" as="geometry" />
        </mxCell>
        <mxCell id="iVkipJ4tJbpNIvdXxOQ8-5" style="edgeStyle=orthogonalEdgeStyle;rounded=0;orthogonalLoop=1;jettySize=auto;html=1;entryX=0.5;entryY=0;entryDx=0;entryDy=0;" parent="1" source="iVkipJ4tJbpNIvdXxOQ8-2" target="iVkipJ4tJbpNIvdXxOQ8-4" edge="1">
          <mxGeometry relative="1" as="geometry" />
        </mxCell>
        <mxCell id="iVkipJ4tJbpNIvdXxOQ8-2" value="&lt;div&gt;&lt;br&gt;&lt;/div&gt;n1&amp;nbsp;&lt;div&gt;n2&lt;/div&gt;&lt;div&gt;n3&lt;/div&gt;" style="html=1;strokeWidth=2;shape=manualInput;whiteSpace=wrap;rounded=1;size=26;arcSize=11;" parent="1" vertex="1">
          <mxGeometry x="364" y="170" width="100" height="70" as="geometry" />
        </mxCell>
        <mxCell id="iVkipJ4tJbpNIvdXxOQ8-3" style="edgeStyle=orthogonalEdgeStyle;rounded=0;orthogonalLoop=1;jettySize=auto;html=1;entryX=0.508;entryY=0.154;entryDx=0;entryDy=0;entryPerimeter=0;" parent="1" source="iVkipJ4tJbpNIvdXxOQ8-1" target="iVkipJ4tJbpNIvdXxOQ8-2" edge="1">
          <mxGeometry relative="1" as="geometry" />
        </mxCell>
        <mxCell id="iVkipJ4tJbpNIvdXxOQ8-7" style="edgeStyle=orthogonalEdgeStyle;rounded=0;orthogonalLoop=1;jettySize=auto;html=1;entryX=0;entryY=0.5;entryDx=0;entryDy=0;" parent="1" source="iVkipJ4tJbpNIvdXxOQ8-4" target="iVkipJ4tJbpNIvdXxOQ8-6" edge="1">
          <mxGeometry relative="1" as="geometry" />
        </mxCell>
        <mxCell id="iVkipJ4tJbpNIvdXxOQ8-12" style="edgeStyle=orthogonalEdgeStyle;rounded=0;orthogonalLoop=1;jettySize=auto;html=1;entryX=0.5;entryY=0;entryDx=0;entryDy=0;" parent="1" source="iVkipJ4tJbpNIvdXxOQ8-4" target="iVkipJ4tJbpNIvdXxOQ8-10" edge="1">
          <mxGeometry relative="1" as="geometry" />
        </mxCell>
        <mxCell id="iVkipJ4tJbpNIvdXxOQ8-4" value="n1 != n2&amp;nbsp;&lt;div&gt;e&lt;/div&gt;&lt;div&gt;n2 != n3&lt;/div&gt;&lt;div&gt;e&lt;/div&gt;&lt;div&gt;n3 != n1&lt;/div&gt;" style="rhombus;whiteSpace=wrap;html=1;" parent="1" vertex="1">
          <mxGeometry x="341" y="290" width="146" height="110" as="geometry" />
        </mxCell>
        <mxCell id="9MCSkJLT3hBxOL77LNDF-1" style="edgeStyle=orthogonalEdgeStyle;rounded=0;orthogonalLoop=1;jettySize=auto;html=1;entryX=1;entryY=0.5;entryDx=0;entryDy=0;" edge="1" parent="1" source="iVkipJ4tJbpNIvdXxOQ8-6" target="iVkipJ4tJbpNIvdXxOQ8-1">
          <mxGeometry relative="1" as="geometry">
            <Array as="points">
              <mxPoint x="660" y="100" />
            </Array>
          </mxGeometry>
        </mxCell>
        <mxCell id="iVkipJ4tJbpNIvdXxOQ8-6" value="erro de digitação. volte ao inicio." style="shape=document;whiteSpace=wrap;html=1;boundedLbl=1;" parent="1" vertex="1">
          <mxGeometry x="600" y="305" width="120" height="80" as="geometry" />
        </mxCell>
        <mxCell id="iVkipJ4tJbpNIvdXxOQ8-14" value="" style="edgeStyle=orthogonalEdgeStyle;rounded=0;orthogonalLoop=1;jettySize=auto;html=1;" parent="1" source="iVkipJ4tJbpNIvdXxOQ8-10" target="iVkipJ4tJbpNIvdXxOQ8-13" edge="1">
          <mxGeometry relative="1" as="geometry" />
        </mxCell>
        <mxCell id="iVkipJ4tJbpNIvdXxOQ8-19" style="edgeStyle=orthogonalEdgeStyle;rounded=0;orthogonalLoop=1;jettySize=auto;html=1;entryX=0.5;entryY=0;entryDx=0;entryDy=0;" parent="1" source="iVkipJ4tJbpNIvdXxOQ8-10" target="iVkipJ4tJbpNIvdXxOQ8-17" edge="1">
          <mxGeometry relative="1" as="geometry" />
        </mxCell>
        <mxCell id="iVkipJ4tJbpNIvdXxOQ8-10" value="n1 &amp;gt; n2&lt;div&gt;e&lt;/div&gt;&lt;div&gt;n1&amp;gt; n3&lt;/div&gt;&lt;div&gt;&lt;br&gt;&lt;/div&gt;" style="rhombus;whiteSpace=wrap;html=1;" parent="1" vertex="1">
          <mxGeometry x="40" y="460" width="130" height="125" as="geometry" />
        </mxCell>
        <mxCell id="iVkipJ4tJbpNIvdXxOQ8-28" style="edgeStyle=orthogonalEdgeStyle;rounded=0;orthogonalLoop=1;jettySize=auto;html=1;entryX=0;entryY=0.5;entryDx=0;entryDy=0;" parent="1" source="iVkipJ4tJbpNIvdXxOQ8-13" target="iVkipJ4tJbpNIvdXxOQ8-27" edge="1">
          <mxGeometry relative="1" as="geometry">
            <Array as="points">
              <mxPoint x="-120" y="1070" />
            </Array>
          </mxGeometry>
        </mxCell>
        <mxCell id="iVkipJ4tJbpNIvdXxOQ8-13" value="&quot;n1 é o maior&quot;" style="shape=document;whiteSpace=wrap;html=1;boundedLbl=1;" parent="1" vertex="1">
          <mxGeometry x="-165" y="482.5" width="120" height="80" as="geometry" />
        </mxCell>
        <mxCell id="iVkipJ4tJbpNIvdXxOQ8-21" value="" style="edgeStyle=orthogonalEdgeStyle;rounded=0;orthogonalLoop=1;jettySize=auto;html=1;" parent="1" source="iVkipJ4tJbpNIvdXxOQ8-17" target="iVkipJ4tJbpNIvdXxOQ8-20" edge="1">
          <mxGeometry relative="1" as="geometry" />
        </mxCell>
        <mxCell id="iVkipJ4tJbpNIvdXxOQ8-23" value="" style="edgeStyle=orthogonalEdgeStyle;rounded=0;orthogonalLoop=1;jettySize=auto;html=1;" parent="1" source="iVkipJ4tJbpNIvdXxOQ8-17" edge="1">
          <mxGeometry relative="1" as="geometry">
            <mxPoint x="595" y="820" as="targetPoint" />
          </mxGeometry>
        </mxCell>
        <mxCell id="iVkipJ4tJbpNIvdXxOQ8-17" value="&lt;div&gt;&amp;nbsp;n2&amp;gt; n1&lt;/div&gt;&lt;div&gt;e&lt;/div&gt;&lt;div&gt;n2&amp;gt; n3&lt;/div&gt;" style="rhombus;whiteSpace=wrap;html=1;" parent="1" vertex="1">
          <mxGeometry x="320" y="620" width="130" height="125" as="geometry" />
        </mxCell>
        <mxCell id="iVkipJ4tJbpNIvdXxOQ8-20" value="&quot;n2 é o maior&quot;" style="shape=document;whiteSpace=wrap;html=1;boundedLbl=1;" parent="1" vertex="1">
          <mxGeometry x="115" y="642.5" width="120" height="80" as="geometry" />
        </mxCell>
        <mxCell id="iVkipJ4tJbpNIvdXxOQ8-26" value="" style="edgeStyle=orthogonalEdgeStyle;rounded=0;orthogonalLoop=1;jettySize=auto;html=1;" parent="1" source="iVkipJ4tJbpNIvdXxOQ8-24" target="iVkipJ4tJbpNIvdXxOQ8-25" edge="1">
          <mxGeometry relative="1" as="geometry" />
        </mxCell>
        <mxCell id="iVkipJ4tJbpNIvdXxOQ8-24" value="&lt;div&gt;n3 &amp;gt; n1&lt;/div&gt;&lt;div&gt;e&lt;/div&gt;&lt;div&gt;n3&amp;gt; n2&lt;/div&gt;" style="rhombus;whiteSpace=wrap;html=1;" parent="1" vertex="1">
          <mxGeometry x="530" y="820" width="130" height="125" as="geometry" />
        </mxCell>
        <mxCell id="iVkipJ4tJbpNIvdXxOQ8-30" style="edgeStyle=orthogonalEdgeStyle;rounded=0;orthogonalLoop=1;jettySize=auto;html=1;entryX=1;entryY=0.5;entryDx=0;entryDy=0;" parent="1" source="iVkipJ4tJbpNIvdXxOQ8-25" target="iVkipJ4tJbpNIvdXxOQ8-27" edge="1">
          <mxGeometry relative="1" as="geometry">
            <Array as="points">
              <mxPoint x="370" y="1070" />
            </Array>
          </mxGeometry>
        </mxCell>
        <mxCell id="iVkipJ4tJbpNIvdXxOQ8-25" value="&quot;n3 é o maior&quot;" style="shape=document;whiteSpace=wrap;html=1;boundedLbl=1;" parent="1" vertex="1">
          <mxGeometry x="325" y="842.5" width="120" height="80" as="geometry" />
        </mxCell>
        <mxCell id="iVkipJ4tJbpNIvdXxOQ8-27" value="fim" style="rounded=1;whiteSpace=wrap;html=1;" parent="1" vertex="1">
          <mxGeometry x="100" y="1040" width="120" height="60" as="geometry" />
        </mxCell>
        <mxCell id="iVkipJ4tJbpNIvdXxOQ8-29" style="edgeStyle=orthogonalEdgeStyle;rounded=0;orthogonalLoop=1;jettySize=auto;html=1;entryX=0.625;entryY=-0.053;entryDx=0;entryDy=0;entryPerimeter=0;" parent="1" source="iVkipJ4tJbpNIvdXxOQ8-20" target="iVkipJ4tJbpNIvdXxOQ8-27" edge="1">
          <mxGeometry relative="1" as="geometry" />
        </mxCell>
        <mxCell id="iVkipJ4tJbpNIvdXxOQ8-31" value="sim" style="text;html=1;align=center;verticalAlign=middle;whiteSpace=wrap;rounded=0;" parent="1" vertex="1">
          <mxGeometry x="210" y="320" width="60" height="30" as="geometry" />
        </mxCell>
        <mxCell id="iVkipJ4tJbpNIvdXxOQ8-35" value="sim" style="text;html=1;align=center;verticalAlign=middle;whiteSpace=wrap;rounded=0;" parent="1" vertex="1">
          <mxGeometry x="260" y="642.5" width="60" height="30" as="geometry" />
        </mxCell>
        <mxCell id="iVkipJ4tJbpNIvdXxOQ8-36" value="sim" style="text;html=1;align=center;verticalAlign=middle;whiteSpace=wrap;rounded=0;" parent="1" vertex="1">
          <mxGeometry x="-30" y="490" width="60" height="30" as="geometry" />
        </mxCell>
        <mxCell id="iVkipJ4tJbpNIvdXxOQ8-39" value="sim" style="text;html=1;align=center;verticalAlign=middle;whiteSpace=wrap;rounded=0;" parent="1" vertex="1">
          <mxGeometry x="480" y="850" width="60" height="30" as="geometry" />
        </mxCell>
        <mxCell id="iVkipJ4tJbpNIvdXxOQ8-40" value="não" style="text;html=1;align=center;verticalAlign=middle;whiteSpace=wrap;rounded=0;" parent="1" vertex="1">
          <mxGeometry x="270" y="490" width="60" height="30" as="geometry" />
        </mxCell>
        <mxCell id="iVkipJ4tJbpNIvdXxOQ8-42" value="não" style="text;html=1;align=center;verticalAlign=middle;whiteSpace=wrap;rounded=0;" parent="1" vertex="1">
          <mxGeometry x="490" y="650" width="60" height="30" as="geometry" />
        </mxCell>
        <mxCell id="iVkipJ4tJbpNIvdXxOQ8-43" value="não" style="text;html=1;align=center;verticalAlign=middle;whiteSpace=wrap;rounded=0;" parent="1" vertex="1">
          <mxGeometry x="510" y="320" width="60" height="30" as="geometry" />
        </mxCell>
        <mxCell id="iVkipJ4tJbpNIvdXxOQ8-44" value="&lt;h1 style=&quot;margin-top: 0px;&quot;&gt;Passo a passo&lt;/h1&gt;&lt;div&gt;1- entrar com os números;&lt;/div&gt;&lt;div&gt;&lt;br&gt;&lt;/div&gt;&lt;div&gt;2- validar se os 3 números são diferentes entre eles;&lt;/div&gt;&lt;div&gt;&lt;br&gt;&lt;/div&gt;&lt;div&gt;3- n1 &amp;gt; n2, n1 &amp;gt; n3, se sim n1 é o maior&amp;nbsp;&lt;/div&gt;&lt;div&gt;&lt;br&gt;&lt;/div&gt;&lt;div&gt;4- n2 &amp;gt; n1, n2 &amp;gt;n3, se sim n2 é o maior&amp;nbsp;&lt;/div&gt;&lt;div&gt;&lt;br&gt;&lt;/div&gt;&lt;div&gt;5- n3 &amp;gt; n1, n3&amp;gt; n2, se sim n3 é o maior&amp;nbsp;&lt;/div&gt;" style="text;html=1;whiteSpace=wrap;overflow=hidden;rounded=0;" parent="1" vertex="1">
          <mxGeometry x="-280" y="70" width="300" height="220" as="geometry" />
        </mxCell>
      </root>
    </mxGraphModel>
  </diagram>
</mxfile>
